# xmcd
#
# Track frame offsets:
#	150
#	24908
#	43653
#	62102
#	78756
#	97238
#	111765
#	128908
#	150836
#	173251
#	197075
#	221097
#
# Disc length: 3376 seconds
#
# Revision: 0
# Processed by: cddbd v1.5.2PL0 Copyright (c) Steve Scherf et al.
# Submitted via: dBpowerAMP V4.0
#
DISCID=930d2e0c
DTITLE=Heather Thornton - Open Road
DYEAR=2006
DGENRE=Blues
TTITLE0=Open Road
TTITLE1=In Love Again
TTITLE2=Rough Around The Edges
TTITLE3=Follow Through
TTITLE4=Time To Shine
TTITLE5=The Crutch
TTITLE6=Beautiful Sensation
TTITLE7=Twisted Desire
TTITLE8=Evil World
TTITLE9=One Little Moment
TTITLE10=I'll Never Stop Loving You
TTITLE11=Live Like You Want To
EXTD=
EXTT0=
EXTT1=
EXTT2=
EXTT3=
EXTT4=
EXTT5=
EXTT6=
EXTT7=
EXTT8=
EXTT9=
EXTT10=
EXTT11=
PLAYORDER=
